<svg xmlns="http://www.w3.org/2000/svg" id="svg4187" width="24" height="24" version="1.1" viewBox="0 0 24 24"><path id="path826" d="M 6,6 C 4.892,6 4,6.892 4,8 v 8 c 0,1.108 0.892,2 2,2 H 3.5 C 3.223,18 3,18.223 3,18.5 v 1 C 3,19.777 3.223,20 3.5,20 h 17 c 0.277,0 0.5,-0.223 0.5,-0.5 v -1 C 21,18.223 20.777,18 20.5,18 H 18 c 1.108,0 2,-0.892 2,-2 V 8 C 20,6.892 19.108,6 18,6 Z m 0,1 h 12 c 0.554,0 1,0.446 1,1 v 8 c 0,0.554 -0.446,1 -1,1 H 6 C 5.446,17 5,16.554 5,16 V 8 C 5,7.446 5.446,7 6,7 Z M 7,8 C 6.446,8 6,8.446 6,9 v 6 c 0,0.554 0.446,1 1,1 h 10 c 0.554,0 1,-0.446 1,-1 V 9 C 18,8.446 17.554,8 17,8 h -4 v 4 H 11 V 8 Z m 5,5 a 1,1 0 0 1 1,1 1,1 0 0 1 -1,1 1,1 0 0 1 -1,-1 1,1 0 0 1 1,-1 z" style="opacity:.3;fill:#fff"/><path style="fill:#3c3c3c" id="path4162" d="M 6,5 C 4.892,5 4,5.892 4,7 v 8 c 0,1.108 0.892,2 2,2 H 3.5 C 3.223,17 3,17.223 3,17.5 v 1 C 3,18.777 3.223,19 3.5,19 h 17 c 0.277,0 0.5,-0.223 0.5,-0.5 v -1 C 21,17.223 20.777,17 20.5,17 H 18 c 1.108,0 2,-0.892 2,-2 V 7 C 20,5.892 19.108,5 18,5 Z m 0,1 h 12 c 0.554,0 1,0.446 1,1 v 8 c 0,0.554 -0.446,1 -1,1 H 6 C 5.446,16 5,15.554 5,15 V 7 C 5,6.446 5.446,6 6,6 Z M 7,7 C 6.446,7 6,7.446 6,8 v 6 c 0,0.554 0.446,1 1,1 h 10 c 0.554,0 1,-0.446 1,-1 V 8 C 18,7.446 17.554,7 17,7 h -4 v 4 H 11 V 7 Z m 5,5 a 1,1 0 0 1 1,1 1,1 0 0 1 -1,1 1,1 0 0 1 -1,-1 1,1 0 0 1 1,-1 z"/></svg>