<?xml version="1.0" encoding="UTF-8" standalone="no"?>
<svg
   xmlns:dc="http://purl.org/dc/elements/1.1/"
   xmlns:cc="http://creativecommons.org/ns#"
   xmlns:rdf="http://www.w3.org/1999/02/22-rdf-syntax-ns#"
   xmlns:svg="http://www.w3.org/2000/svg"
   xmlns="http://www.w3.org/2000/svg"
   version="1.1"
   id="svg4187"
   viewBox="0 0 24 24"
   height="24"
   width="24">
  <defs
     id="defs4189" />
  <metadata
     id="metadata4192">
    <rdf:RDF>
      <cc:Work
         rdf:about="">
        <dc:format>image/svg+xml</dc:format>
        <dc:type
           rdf:resource="http://purl.org/dc/dcmitype/StillImage" />
        <dc:title></dc:title>
      </cc:Work>
    </rdf:RDF>
  </metadata>
  <path
     id="path4144"
     d="M 8,5 C 6.892,5 6,5.892 6,7 l 0,12 c 0,1.108 0.892,2 2,2 l 8,0 c 1.108,0 2,-0.892 2,-2 L 18,7 C 18,5.892 17.108,5 16,5 L 8,5 Z m 0,1 8,0 c 0.554,0 1,0.446 1,1 l 0,12 c 0,0.554 -0.446,1 -1,1 l -2,0 0,-1 -4,0 0,1 -2,0 C 7.446,20 7,19.554 7,19 L 7,7 C 7,6.446 7.446,6 8,6 Z M 9,7 C 8.446,7 8,7.446 8,8 l 0,8 c 0,0.554 0.446,1 1,1 l 6,0 c 0.554,0 1,-0.446 1,-1 L 16,8 C 16,7.446 15.554,7 15,7 L 9,7 Z"
     style="opacity:0.3;fill:#ffffff;fill-opacity:1" />
  <path
     style="fill:#3c3c3c"
     d="M 8,4 C 6.892,4 6,4.892 6,6 l 0,12 c 0,1.108 0.892,2 2,2 l 8,0 c 1.108,0 2,-0.892 2,-2 L 18,6 C 18,4.892 17.108,4 16,4 L 8,4 Z m 0,1 8,0 c 0.554,0 1,0.446 1,1 l 0,12 c 0,0.554 -0.446,1 -1,1 l -2,0 0,-1 -4,0 0,1 -2,0 C 7.446,19 7,18.554 7,18 L 7,6 C 7,5.446 7.446,5 8,5 Z M 9,6 C 8.446,6 8,6.446 8,7 l 0,8 c 0,0.554 0.446,1 1,1 l 6,0 c 0.554,0 1,-0.446 1,-1 L 16,7 C 16,6.446 15.554,6 15,6 L 9,6 Z"
     id="rect2401" />
</svg>
