<svg xmlns="http://www.w3.org/2000/svg" id="svg4187" width="24" height="24" version="1.1" viewBox="0 0 24 24"><path id="path832" d="M 6,7 C 4.892,7 4,7.892 4,9 v 8 c 0,1.108 0.892,2 2,2 h 12 c 1.108,0 2,-0.892 2,-2 V 9 C 20,7.892 19.108,7 18,7 Z m 0,1 h 12 c 0.554,0 1,0.446 1,1 v 8 c 0,0.554 -0.446,1 -1,1 H 6 C 5.446,18 5,17.554 5,17 V 9 C 5,8.446 5.446,8 6,8 Z M 7,9 C 6.446,9 6,9.446 6,10 v 6 c 0,0.554 0.446,1 1,1 h 10 c 0.554,0 1,-0.446 1,-1 V 10 C 18,9.446 17.554,9 17,9 h -4 v 4 H 11 V 9 Z m 5,5 a 1,1 0 0 1 1,1 1,1 0 0 1 -1,1 1,1 0 0 1 -1,-1 1,1 0 0 1 1,-1 z" style="opacity:.3;fill:#fff"/><path style="fill:#3c3c3c" id="path4146" d="M 6,6 C 4.892,6 4,6.892 4,8 v 8 c 0,1.108 0.892,2 2,2 h 12 c 1.108,0 2,-0.892 2,-2 V 8 C 20,6.892 19.108,6 18,6 Z m 0,1 h 12 c 0.554,0 1,0.446 1,1 v 8 c 0,0.554 -0.446,1 -1,1 H 6 C 5.446,17 5,16.554 5,16 V 8 C 5,7.446 5.446,7 6,7 Z M 7,8 C 6.446,8 6,8.446 6,9 v 6 c 0,0.554 0.446,1 1,1 h 10 c 0.554,0 1,-0.446 1,-1 V 9 C 18,8.446 17.554,8 17,8 h -4 v 4 H 11 V 8 Z m 5,5 a 1,1 0 0 1 1,1 1,1 0 0 1 -1,1 1,1 0 0 1 -1,-1 1,1 0 0 1 1,-1 z"/></svg>