<svg xmlns="http://www.w3.org/2000/svg" xmlns:svg="http://www.w3.org/2000/svg" id="svg4187" width="24" height="24" version="1.1" viewBox="0 0 24 24"><metadata id="metadata4192"/><path id="path4148" d="M 6,7 C 5.446,7 5,7.446 5,8 L 5,9 C 5,8.446 5.446,8 6,8 l 1,0 10,0 1,0 c 0.554,0 1,0.446 1,1 L 19,8 C 19,7.446 18.554,7 18,7 L 6,7 Z m 0,8 0,1 c 0,0.554 0.446,1 1,1 l 10,0 c 0.554,0 1,-0.446 1,-1 l 0,-1 c 0,0.554 -0.446,1 -1,1 L 7,16 C 6.446,16 6,15.554 6,15 Z m -2,1 0,1 c 0,1.108 0.892,2 2,2 l 12,0 c 1.108,0 2,-0.892 2,-2 l 0,-1 c 0,1.108 -0.892,2 -2,2 L 6,18 C 4.892,18 4,17.108 4,16 Z" style="opacity:.3;fill:#fff;fill-opacity:1"/><path style="opacity:.4;fill:#3c3c3c" id="path4146" d="m 4,16 c 0,1.108 0.892,2 2,2 l 12,0 c 1.108,0 2,-0.892 2,-2 L 20,8 C 20,6.892 19.108,6 18,6 L 6,6 C 4.892,6 4,6.892 4,8 Z M 5,16 5,8 C 5,7.446 5.446,7 6,7 l 12,0 c 0.554,0 1,0.446 1,1 l 0,8 c 0,0.554 -0.446,1 -1,1 L 6,17 C 5.446,17 5,16.554 5,16 Z m 1,-1 c 0,0.554 0.446,1 1,1 l 10,0 c 0.554,0 1,-0.446 1,-1 L 18,9 C 18,8.446 17.554,8 17,8 L 7,8 C 6.446,8 6,8.446 6,9 Z"/></svg>