<?xml version="1.0" encoding="UTF-8" standalone="no"?>
<svg
   xmlns:dc="http://purl.org/dc/elements/1.1/"
   xmlns:cc="http://creativecommons.org/ns#"
   xmlns:rdf="http://www.w3.org/1999/02/22-rdf-syntax-ns#"
   xmlns:svg="http://www.w3.org/2000/svg"
   xmlns="http://www.w3.org/2000/svg"
   version="1.1"
   id="svg4187"
   viewBox="0 0 24 24"
   height="24"
   width="24">
  <defs
     id="defs4189" />
  <metadata
     id="metadata4192">
    <rdf:RDF>
      <cc:Work
         rdf:about="">
        <dc:format>image/svg+xml</dc:format>
        <dc:type
           rdf:resource="http://purl.org/dc/dcmitype/StillImage" />
        <dc:title></dc:title>
      </cc:Work>
    </rdf:RDF>
  </metadata>
  <path
     style="opacity:0.3;fill:#ffffff;fill-opacity:1"
     d="m 4,17 c 0,1.108 0.892,2 2,2 l 12,0 c 1.108,0 2,-0.892 2,-2 L 20,9 C 20,7.892 19.108,7 18,7 L 6,7 C 4.892,7 4,7.892 4,9 Z M 5,17 5,9 C 5,8.446 5.446,8 6,8 l 12,0 c 0.554,0 1,0.446 1,1 l 0,8 c 0,0.554 -0.446,1 -1,1 L 6,18 C 5.446,18 5,17.554 5,17 Z m 1,-1 c 0,0.554 0.446,1 1,1 l 10,0 c 0.554,0 1,-0.446 1,-1 l 0,-6 C 18,9.446 17.554,9 17,9 L 7,9 C 6.446,9 6,9.446 6,10 Z"
     id="path4148" />
  <path
     id="path4146"
     d="m 4,16 c 0,1.108 0.892,2 2,2 l 12,0 c 1.108,0 2,-0.892 2,-2 L 20,8 C 20,6.892 19.108,6 18,6 L 6,6 C 4.892,6 4,6.892 4,8 Z M 5,16 5,8 C 5,7.446 5.446,7 6,7 l 12,0 c 0.554,0 1,0.446 1,1 l 0,8 c 0,0.554 -0.446,1 -1,1 L 6,17 C 5.446,17 5,16.554 5,16 Z m 1,-1 c 0,0.554 0.446,1 1,1 l 10,0 c 0.554,0 1,-0.446 1,-1 L 18,9 C 18,8.446 17.554,8 17,8 L 7,8 C 6.446,8 6,8.446 6,9 Z"
     style="fill:#df382c;fill-opacity:1" />
</svg>
