<?xml version="1.0" encoding="UTF-8" standalone="no"?>
<svg xmlns="http://www.w3.org/2000/svg" height="24" version="1.1" width="24">
 <title>
  elementary Symbolic Icon Theme
 </title>
 <path style="fill:#ffffff;fill-opacity:1;stroke:none;opacity:0.4" d="m 7.0000001,4 c -1.662,0 -3,1.338 -3,3 l 0,7 c 0,1.662 1.338,3 3,3 L 17,17 c 1.662,0 3,-1.338 3,-3 L 20,7 C 20,5.338 18.662,4 17,4 Z m 0,2 L 17,6 c 0.554,0 1,0.446 1,1 l 0,7 c 0,0.554 -0.446,1 -1,1 l -9.9999999,0 c -0.554,0 -1,-0.446 -1,-1 l 0,-7 c 0,-0.554 0.446,-1 1,-1 z M 12,18 3.0000001,18 c 0,1 1,2 1,2 L 20,20 c 1,0 1,-2 1,-2 z"/>
</svg>
