<svg xmlns="http://www.w3.org/2000/svg" id="svg6" width="24" height="24" version="1.1">
 <path style="fill:#ffffff;fill-opacity:1;stroke:none" id="path4" d="m 7.0000001,4 c -1.662,0 -3,1.338 -3,3 l 0,7 c 0,1.662 1.338,3 3,3 L 17,17 c 1.662,0 3,-1.338 3,-3 L 20,7 C 20,5.338 18.662,4 17,4 Z m 0,2 L 17,6 c 0.554,0 1,0.446 1,1 l 0,7 c 0,0.554 -0.446,1 -1,1 l -9.9999999,0 c -0.554,0 -1,-0.446 -1,-1 l 0,-7 c 0,-0.554 0.446,-1 1,-1 z M 12,18 3.0000001,18 c 0,1 1,2 1,2 L 20,20 c 1,0 1,-2 1,-2 z"/>
 <path style="opacity:1;fill:#d33636;fill-opacity:1;stroke:none;stroke-width:1.78883052;stroke-linecap:round;stroke-linejoin:round;stroke-miterlimit:4;stroke-dasharray:none;stroke-opacity:1" id="rect822" d="M 11 7 L 11 11 L 13 11 L 13 7 L 11 7 z M 12 12 A 1 1 0 0 0 11 13 A 1 1 0 0 0 12 14 A 1 1 0 0 0 13 13 A 1 1 0 0 0 12 12 z"/>
</svg>
