<svg xmlns="http://www.w3.org/2000/svg" width="24" height="24" version="1.1">
 <path style="color:#000000;display:inline;overflow:visible;visibility:visible;fill:#ffffff;fill-opacity:1;stroke:none;stroke-width:0.99999982;marker:none;enable-background:accumulate" d="M 9,4 C 7.892,4 7,4.892 7,6 l 0,12 c 0,1.108 0.892,2 2,2 l 6,0 c 1.108,0 2,-0.892 2,-2 L 17,6 C 17,4.892 16.108,4 15,4 L 9,4 Z m -0.5,3 7,0 C 15.777,7 16,7.223 16,7.5 l 0,9 c 0,0.277 -0.223,0.5 -0.5,0.5 l -7,0 C 8.223,17 8,16.777 8,16.5 l 0,-9 C 8,7.223 8.223,7 8.5,7 Z M 12,17.75 c 0.41421,0 0.75,0.33579 0.75,0.75 0,0.41421 -0.33579,0.75 -0.75,0.75 -0.41421,0 -0.75,-0.33579 -0.75,-0.75 0,-0.41421 0.33579,-0.75 0.75,-0.75 z"/>
</svg>
