<svg xmlns="http://www.w3.org/2000/svg" id="svg6" width="24" height="24" version="1.1">
 <path style="fill:#ffffff;fill-opacity:1;stroke:none" id="path4" d="m 7,4.00016 c -1,0 -1,1 -1,1 l 0,13.99968 c 0,1 1,1 1,1 l 10,0 c 0,0 1,0 1,-1 L 18,5.00016 c 0,0 0,-1 -1,-1 z m 0.99979,2.00336 8,0 -2e-4,11.00304 -8,0 z"/>
 <path style="opacity:1;fill:#d33636;fill-opacity:1;stroke:none;stroke-width:1.78883052;stroke-linecap:round;stroke-linejoin:round;stroke-miterlimit:4;stroke-dasharray:none;stroke-opacity:1" id="rect822" d="M 11,8.0000002 V 12 h 2 V 8.0000002 Z M 12,13 a 1,1 0 0 0 -1,1 1,1 0 0 0 1,1 1,1 0 0 0 1,-1 1,1 0 0 0 -1,-1 z"/>
</svg>
