<svg xmlns="http://www.w3.org/2000/svg" id="svg4187" width="24" height="24" version="1.1" viewBox="0 0 24 24">
 <path style="opacity:0.3;fill:#000000;fill-opacity:1" id="path4175" d="M 6,6 C 5.446,6 5,6.446 5,7 L 5,8 C 5,7.446 5.446,7 6,7 l 1,0 10,0 1,0 c 0.554,0 1,0.446 1,1 L 19,7 C 19,6.446 18.554,6 18,6 L 6,6 Z m 0,8 0,1 c 0,0.554 0.446,1 1,1 l 10,0 c 0.554,0 1,-0.446 1,-1 l 0,-1 c 0,0.554 -0.446,1 -1,1 L 7,15 C 6.446,15 6,14.554 6,14 Z m -2,1 0,1 c 0,0.36693 0.1042911,0.704999 0.2753906,1 L 6,17 C 4.892,17 4,16.108 4,15 Z m 16,0 c 0,1.108 -0.892,2 -2,2 l 1.724609,0 C 19.895709,16.704999 20,16.36693 20,16 l 0,-1 z m -17,3.5 0,1 C 3,19.777 3.223,20 3.5,20 l 17,0 c 0.277,0 0.5,-0.223 0.5,-0.5 l 0,-1 c 0,0.277 -0.223,0.5 -0.5,0.5 l -17,0 C 3.223,19 3,18.777 3,18.5 Z"/>
 <path style="opacity:0.4;fill:#dfdbd2" id="path4162" d="M 6,5 C 4.892,5 4,5.892 4,7 l 0,8 c 0,1.108 0.892,2 2,2 L 3.5,17 C 3.223,17 3,17.223 3,17.5 l 0,1 C 3,18.777 3.223,19 3.5,19 l 17,0 c 0.277,0 0.5,-0.223 0.5,-0.5 l 0,-1 C 21,17.223 20.777,17 20.5,17 L 18,17 c 1.108,0 2,-0.892 2,-2 L 20,7 C 20,5.892 19.108,5 18,5 L 6,5 Z m 0,1 12,0 c 0.554,0 1,0.446 1,1 l 0,8 c 0,0.554 -0.446,1 -1,1 L 6,16 C 5.446,16 5,15.554 5,15 L 5,7 C 5,6.446 5.446,6 6,6 Z M 7,7 C 6.446,7 6,7.446 6,8 l 0,6 c 0,0.554 0.446,1 1,1 l 10,0 c 0.554,0 1,-0.446 1,-1 L 18,8 C 18,7.446 17.554,7 17,7 L 7,7 Z"/>
</svg>
