<svg xmlns="http://www.w3.org/2000/svg" id="svg4187" width="24" height="24" version="1.1" viewBox="0 0 24 24"><path style="opacity:.3;fill:#000;fill-opacity:1" id="path4144" d="M 8,5 C 7.446,5 7,5.446 7,6 L 7,7 C 7,6.446 7.446,6 8,6 l 1,0 6,0 1,0 c 0.554,0 1,0.446 1,1 L 17,6 C 17,5.446 16.554,5 16,5 L 8,5 Z m 0,10 0,1 c 0,0.554 0.446,1 1,1 l 6,0 c 0.554,0 1,-0.446 1,-1 l 0,-1 c 0,0.554 -0.446,1 -1,1 L 9,16 C 8.446,16 8,15.554 8,15 Z m -2,3 0,1 c 0,1.108 0.892,2 2,2 l 8,0 c 1.108,0 2,-0.892 2,-2 l 0,-1 c 0,1.108 -0.892,2 -2,2 l -2,0 -4,0 -2,0 C 6.892,20 6,19.108 6,18 Z"/><path id="rect2401" d="M 8,4 C 6.892,4 6,4.892 6,6 l 0,12 c 0,1.108 0.892,2 2,2 l 8,0 c 1.108,0 2,-0.892 2,-2 L 18,6 C 18,4.892 17.108,4 16,4 L 8,4 Z m 0,1 8,0 c 0.554,0 1,0.446 1,1 l 0,12 c 0,0.554 -0.446,1 -1,1 l -2,0 0,-1 -4,0 0,1 -2,0 C 7.446,19 7,18.554 7,18 L 7,6 C 7,5.446 7.446,5 8,5 Z M 9,6 C 8.446,6 8,6.446 8,7 l 0,8 c 0,0.554 0.446,1 1,1 l 6,0 c 0.554,0 1,-0.446 1,-1 L 16,7 C 16,6.446 15.554,6 15,6 L 9,6 Z" style="opacity:.4;fill:#dfdbd2"/></svg>