<svg xmlns="http://www.w3.org/2000/svg" id="svg4187" width="24" height="24" version="1.1" viewBox="0 0 24 24">
 <path id="path4144" d="M 8,5 C 6.892,5 6,5.892 6,7 l 0,12 c 0,1.108 0.892,2 2,2 l 8,0 c 1.108,0 2,-0.892 2,-2 L 18,7 C 18,5.892 17.108,5 16,5 L 8,5 Z m 0,1 8,0 c 0.554,0 1,0.446 1,1 l 0,12 c 0,0.554 -0.446,1 -1,1 l -2,0 0,-1 -4,0 0,1 -2,0 C 7.446,20 7,19.554 7,19 L 7,7 C 7,6.446 7.446,6 8,6 Z M 9,7 C 8.446,7 8,7.446 8,8 l 0,8 c 0,0.554 0.446,1 1,1 l 6,0 c 0.554,0 1,-0.446 1,-1 L 16,8 C 16,7.446 15.554,7 15,7 L 9,7 Z" style="opacity:0.3;fill:#000000;fill-opacity:1"/>
 <path style="fill:#dfdbd2" id="rect2401" d="M 8,4 C 6.892,4 6,4.892 6,6 l 0,12 c 0,1.108 0.892,2 2,2 l 8,0 c 1.108,0 2,-0.892 2,-2 L 18,6 C 18,4.892 17.108,4 16,4 L 8,4 Z m 0,1 8,0 c 0.554,0 1,0.446 1,1 l 0,12 c 0,0.554 -0.446,1 -1,1 l -2,0 0,-1 -4,0 0,1 -2,0 C 7.446,19 7,18.554 7,18 L 7,6 C 7,5.446 7.446,5 8,5 Z M 9,6 C 8.446,6 8,6.446 8,7 l 0,8 c 0,0.554 0.446,1 1,1 l 6,0 c 0.554,0 1,-0.446 1,-1 L 16,7 C 16,6.446 15.554,6 15,6 L 9,6 Z"/>
</svg>
