<svg xmlns="http://www.w3.org/2000/svg" id="svg8" width="22" height="22" version="1.1">
 <path style="opacity:1;fill:#cccccc;fill-opacity:0.35;stroke:none" id="path4" d="M 4.7773438,4 C 4.3470743,4 4,4.4321508 4,4.96875 l 0,9.0625 C 4,14.567849 4.3470743,15 4.7773438,15 L 10,15 l 0,-2 -4,0 0,-7 4,0 0,-1 2,0 0,1 4,0 0,4.005859 2,0 0,-5.037109 C 18,4.4321508 17.652926,4 17.222656,4 L 4.7773438,4 Z M 4.1425781,16 C 3.5094353,16 3,16.446 3,17 c 0,0.554 0.5094353,1 1.1425781,1 L 10,18 10,16 4.1425781,16 Z"/>
 <path class="warning" style="fill:#f57900" id="path827" d="M 11.875,11 C 11.38255,11 11,11.38256 11,11.875 v 6.25 C 11,18.61744 11.38255,19 11.875,19 h 6.25 C 18.61745,19 19,18.61744 19,18.125 v -6.25 c 0,-0.49 -0.380859,-0.86914 -0.880859,-0.86914 h -6.25 z M 12,12 h 1.414062 L 15,13.585938 16.585938,12 H 18 v 1.414062 L 16.414062,15 18,16.585938 V 18 H 16.585938 L 15,16.414062 13.414062,18 H 12 V 16.585938 L 13.585938,15 12,13.414062 Z"/>
</svg>
