<?xml version="1.0" encoding="UTF-8" standalone="no"?>
<svg xmlns="http://www.w3.org/2000/svg" version="1.1" width="22" height="22">
 <title>
  Gnome Symbolic Icon Theme
 </title>
 <path d="M 4.7773438,4 C 4.3470743,4 4,4.4321508 4,4.96875 l 0,9.0625 C 4,14.567849 4.3470743,15 4.7773438,15 L 17.222656,15 C 17.652926,15 18,14.567849 18,14.03125 l 0,-9.0625 C 18,4.4321508 17.652926,4 17.222656,4 L 4.7773438,4 Z M 10,5 l 2,0 0,1 4,0 0,7 -10,0 0,-7 4,0 0,-1 z M 4.1425781,16 C 3.5094352,16 3,16.446 3,17 c 0,0.554 0.5094352,1 1.1425781,1 L 17.857422,18 C 18.490565,18 19,17.554 19,17 19,16.446 18.490565,16 17.857422,16 L 4.1425781,16 Z" style="opacity:0.35;fill:#cccccc;fill-opacity:1;stroke:none"/>
</svg>
