<?xml version="1.0" encoding="UTF-8" standalone="no"?>
<svg xmlns="http://www.w3.org/2000/svg" version="1.1" width="22" height="22">
 <path style="opacity:1;fill:#cccccc;fill-opacity:1;stroke:none" d="M 4.7773438,4 C 4.3470743,4 4,4.4321508 4,4.96875 l 0,9.0625 C 4,14.567849 4.3470743,15 4.7773438,15 L 10,15 l 0,-2 -4,0 0,-7 4,0 0,-1 2,0 0,1 4,0 0,4.005859 2,0 0,-5.037109 C 18,4.4321508 17.652926,4 17.222656,4 L 4.7773438,4 Z M 4.1425781,16 C 3.5094353,16 3,16.446 3,17 c 0,0.554 0.5094353,1 1.1425781,1 L 10,18 10,16 4.1425781,16 Z"/>
 <path class="warning" d="M 11.875,11 C 11.38255,11 11,11.38256 11,11.875 l 0,6.25 C 11,18.61744 11.38255,19 11.875,19 l 6.25,0 C 18.61745,19 19,18.61744 19,18.125 l 0,-6.25 c 0,-0.49 -0.38,-0.87 -0.88,-0.87 l -6.25,0 z m 2.125,1 2,0 0,4 -2,0 0,-4 z m 0,5 2,0 0,1 -2,0 0,-1 z" style="fill:#f57900"/>
</svg>
