<svg xmlns="http://www.w3.org/2000/svg" width="22" height="22" version="1.1">
 <path style="opacity:0.35;fill:#cccccc;fill-opacity:1" d="M 7.8222656,4 C 6.8039961,4 6,4.64771 6,5.46875 l 0,11.0625 C 6,17.35224 6.803934,18 7.8222656,18 l 6.3554684,0 C 15.196004,18 16,17.35229 16,16.53125 L 16,5.46875 C 16,4.64776 15.196066,4 14.177734,4 L 7.8222656,4 Z M 8,6 l 6,0 0,8 -6,0 0,-8 z m 2,9 2,0 0,2 -2,0 0,-2 z"/>
 <path d="M 7.8222656,4 C 6.8039961,4 6,4.64771 6,5.46875 l 0,11.0625 C 6,17.35224 6.803934,18 7.8222656,18 l 6.3554684,0 C 15.196004,18 16,17.35229 16,16.53125 L 16,5.46875 C 16,4.64776 15.196066,4 14.177734,4 L 7.8222656,4 Z M 8,6 l 6,0 0,8 -6,0 0,-8 z m 2,9 2,0 0,2 -2,0 0,-2 z" style="opacity:0.35;fill:#cccccc;fill-opacity:1"/>
</svg>
