<svg xmlns="http://www.w3.org/2000/svg" width="22" height="22" version="1.1"><path style="fill:#ccc;fill-opacity:1" d="M 7.8222656,4 C 6.8039961,4 6,4.64771 6,5.46875 l 0,11.0625 C 6,17.35224 6.803934,18 7.8222656,18 L 10,18 l 0,-1 0,-2 0,-1 -2,0 0,-8 6,0 0,4.005859 2,0 0,-4.537109 C 16,4.64776 15.196066,4 14.177734,4 L 7.8222656,4 Z"/><path d="M 11.875,11 C 11.38255,11 11,11.38256 11,11.875 l 0,6.25 C 11,18.61744 11.38255,19 11.875,19 l 6.25,0 C 18.61745,19 19,18.61744 19,18.125 l 0,-6.25 c 0,-0.49 -0.38,-0.87 -0.88,-0.87 l -6.25,0 z m 2.125,1 2,0 0,4 -2,0 0,-4 z m 0,5 2,0 0,1 -2,0 0,-1 z" class="warning" style="fill:#f57900"/></svg>