<svg xmlns="http://www.w3.org/2000/svg" id="svg8" width="22" height="22" version="1.1">
 <path style="fill:#cccccc;fill-opacity:0.35" id="path4" d="M 7.8222656,4 C 6.8039961,4 6,4.64771 6,5.46875 l 0,11.0625 C 6,17.35224 6.803934,18 7.8222656,18 L 10,18 l 0,-1 0,-2 0,-1 -2,0 0,-8 6,0 0,4.005859 2,0 0,-4.537109 C 16,4.64776 15.196066,4 14.177734,4 L 7.8222656,4 Z"/>
 <path class="warning" style="fill:#f57900" id="path827" d="M 11.875,11 C 11.38255,11 11,11.38256 11,11.875 v 6.25 C 11,18.61744 11.38255,19 11.875,19 h 6.25 C 18.61745,19 19,18.61744 19,18.125 v -6.25 c 0,-0.49 -0.380859,-0.86914 -0.880859,-0.86914 h -6.25 z M 12,12 h 1.414062 L 15,13.585938 16.585938,12 H 18 v 1.414062 L 16.414062,15 18,16.585938 V 18 H 16.585938 L 15,16.414062 13.414062,18 H 12 V 16.585938 L 13.585938,15 12,13.414062 Z"/>
</svg>
