<?xml version="1.0" encoding="UTF-8" standalone="no"?>
<svg xmlns="http://www.w3.org/2000/svg" version="1.1" width="22" height="22">
 <path style="opacity:1;fill:#cccccc;fill-opacity:1;stroke:none" d="M 4.7773438,5 C 4.3470743,5 4,5.4321508 4,5.96875 l 0,10.0625 C 4,16.567849 4.3470743,17 4.7773438,17 L 10,17 l 0,-2 -4,0 0,-8 4,0 0,-1 2,0 0,1 4,0 0,3.005859 2,0 0,-4.037109 C 18,5.4321508 17.652926,5 17.222656,5 L 4.7773438,5 Z"/>
 <path class="warning" d="M 11.875,11 C 11.38255,11 11,11.38256 11,11.875 l 0,6.25 C 11,18.61744 11.38255,19 11.875,19 l 6.25,0 C 18.61745,19 19,18.61744 19,18.125 l 0,-6.25 c 0,-0.49 -0.38,-0.87 -0.88,-0.87 l -6.25,0 z m 2.125,1 2,0 0,4 -2,0 0,-4 z m 0,5 2,0 0,1 -2,0 0,-1 z" style="fill:#f57900"/>
</svg>
