<?xml version="1.0" encoding="UTF-8" standalone="no"?>
<svg
   xmlns:dc="http://purl.org/dc/elements/1.1/"
   xmlns:cc="http://creativecommons.org/ns#"
   xmlns:rdf="http://www.w3.org/1999/02/22-rdf-syntax-ns#"
   xmlns:svg="http://www.w3.org/2000/svg"
   xmlns="http://www.w3.org/2000/svg"
   version="1.1"
   width="16"
   height="16"
   id="svg7384">
  <defs
     id="defs10" />
  <metadata
     id="metadata90">
    <rdf:RDF>
      <cc:Work
         rdf:about="">
        <dc:format>image/svg+xml</dc:format>
        <dc:type
           rdf:resource="http://purl.org/dc/dcmitype/StillImage" />
        <dc:title>Gnome Symbolic Icon Theme</dc:title>
      </cc:Work>
    </rdf:RDF>
  </metadata>
  <title
     id="title9167">Gnome Symbolic Icon Theme</title>
  <path
     id="rect4176"
     d="M 1.7773438 1 C 1.3470743 1 1 1.4321508 1 1.96875 L 1 11.03125 C 1 11.567849 1.3470743 12 1.7773438 12 L 14.222656 12 C 14.652926 12 15 11.567849 15 11.03125 L 15 1.96875 C 15 1.4321508 14.652926 1 14.222656 1 L 1.7773438 1 z M 3 3 L 13 3 L 13 10 L 3 10 L 3 3 z M 6 13 C 5.446 13 5 13.446 5 14 C 5 14.554 5.446 15 6 15 L 10 15 C 10.554 15 11 14.554 11 14 C 11 13.446 10.554 13 10 13 L 6 13 z "
     style="opacity:1;fill:#bebebe;fill-opacity:1;stroke:none" />
</svg>
