<svg xmlns="http://www.w3.org/2000/svg" id="svg4187" width="22" height="22" version="1.1" viewBox="0 0 22 22">
 <path id="path826" d="M 5,5 C 3.892,5 3,5.892 3,7 v 8 c 0,1.108 0.892,2 2,2 H 2.5 C 2.223,17 2,17.223 2,17.5 v 1 C 2,18.777 2.223,19 2.5,19 h 17 c 0.277,0 0.5,-0.223 0.5,-0.5 v -1 C 20,17.223 19.777,17 19.5,17 H 17 c 1.108,0 2,-0.892 2,-2 V 7 C 19,5.892 18.108,5 17,5 Z m 0,1 h 12 c 0.554,0 1,0.446 1,1 v 8 c 0,0.554 -0.446,1 -1,1 H 5 C 4.446,16 4,15.554 4,15 V 7 C 4,6.446 4.446,6 5,6 Z M 6,7 C 5.446,7 5,7.446 5,8 v 6 c 0,0.554 0.446,1 1,1 h 10 c 0.554,0 1,-0.446 1,-1 V 8 C 17,7.446 16.554,7 16,7 h -4 v 4 H 10 V 7 Z m 5,5 a 1,1 0 0 1 1,1 1,1 0 0 1 -1,1 1,1 0 0 1 -1,-1 1,1 0 0 1 1,-1 z" style="opacity:0.3;fill:#ffffff"/>
 <path style="fill:#3c3c3c" id="path4162" d="M 5 4 C 3.892 4 3 4.892 3 6 L 3 14 C 3 15.108 3.892 16 5 16 L 2.5 16 C 2.223 16 2 16.223 2 16.5 L 2 17.5 C 2 17.777 2.223 18 2.5 18 L 19.5 18 C 19.777 18 20 17.777 20 17.5 L 20 16.5 C 20 16.223 19.777 16 19.5 16 L 17 16 C 18.108 16 19 15.108 19 14 L 19 6 C 19 4.892 18.108 4 17 4 L 5 4 z M 5 5 L 17 5 C 17.554 5 18 5.446 18 6 L 18 14 C 18 14.554 17.554 15 17 15 L 5 15 C 4.446 15 4 14.554 4 14 L 4 6 C 4 5.446 4.446 5 5 5 z M 6 6 C 5.446 6 5 6.446 5 7 L 5 13 C 5 13.554 5.446 14 6 14 L 16 14 C 16.554 14 17 13.554 17 13 L 17 7 C 17 6.446 16.554 6 16 6 L 12 6 L 12 10 L 10 10 L 10 6 L 6 6 z M 11 11 A 1 1 0 0 1 12 12 A 1 1 0 0 1 11 13 A 1 1 0 0 1 10 12 A 1 1 0 0 1 11 11 z"/>
</svg>
