<svg xmlns="http://www.w3.org/2000/svg" xmlns:svg="http://www.w3.org/2000/svg" id="svg4187" width="22" height="22" version="1.1" viewBox="0 0 22 22"><metadata id="metadata4192"/><path style="opacity:.3;fill:#fff;fill-opacity:1" id="path4144" d="M 7,4 C 5.892,4 5,4.892 5,6 l 0,12 c 0,1.108 0.892,2 2,2 l 8,0 c 1.108,0 2,-0.892 2,-2 L 17,6 C 17,4.892 16.108,4 15,4 L 7,4 Z m 0,1 8,0 c 0.554,0 1,0.446 1,1 l 0,12 c 0,0.554 -0.446,1 -1,1 l -2,0 0,-1 -4,0 0,1 -2,0 C 6.446,19 6,18.554 6,18 L 6,6 C 6,5.446 6.446,5 7,5 Z M 8,6 C 7.446,6 7,6.446 7,7 l 0,8 c 0,0.554 0.446,1 1,1 l 6,0 c 0.554,0 1,-0.446 1,-1 L 15,7 C 15,6.446 14.554,6 14,6 L 8,6 Z"/><path id="rect2401" d="M 7,3 C 5.892,3 5,3.892 5,5 l 0,12 c 0,1.108 0.892,2 2,2 l 8,0 c 1.108,0 2,-0.892 2,-2 L 17,5 C 17,3.892 16.108,3 15,3 L 7,3 Z m 0,1 8,0 c 0.554,0 1,0.446 1,1 l 0,12 c 0,0.554 -0.446,1 -1,1 l -2,0 0,-1 -4,0 0,1 -2,0 C 6.446,18 6,17.554 6,17 L 6,5 C 6,4.446 6.446,4 7,4 Z M 8,5 C 7.446,5 7,5.446 7,6 l 0,8 c 0,0.554 0.446,1 1,1 l 6,0 c 0.554,0 1,-0.446 1,-1 L 15,6 C 15,5.446 14.554,5 14,5 L 8,5 Z" style="fill:#3c3c3c"/></svg>