<svg xmlns="http://www.w3.org/2000/svg" id="svg4187" width="22" height="22" version="1.1" viewBox="0 0 22 22">
 <path id="path821" d="M 7,4 C 5.892,4 5,4.892 5,6 v 12 c 0,1.108 0.892,2 2,2 h 8 c 1.108,0 2,-0.892 2,-2 V 6 C 17,4.892 16.108,4 15,4 Z m 0,1 h 8 c 0.554,0 1,0.446 1,1 v 12 c 0,0.554 -0.446,1 -1,1 H 13 V 18 H 9 v 1 H 7 C 6.446,19 6,18.554 6,18 V 6 C 6,5.446 6.446,5 7,5 Z M 8,6 C 7.446,6 7,6.446 7,7 v 8 c 0,0.554 0.446,1 1,1 h 6 c 0.554,0 1,-0.446 1,-1 V 7 C 15,6.446 14.554,6 14,6 Z m 2,2 h 2 v 4 h -2 z m 1,5 a 1,1 0 0 1 1,1 1,1 0 0 1 -1,1 1,1 0 0 1 -1,-1 1,1 0 0 1 1,-1 z" style="opacity:0.3;fill:#ffffff"/>
 <path style="fill:#3c3c3c" id="rect2401" d="M 7 3 C 5.892 3 5 3.892 5 5 L 5 17 C 5 18.108 5.892 19 7 19 L 15 19 C 16.108 19 17 18.108 17 17 L 17 5 C 17 3.892 16.108 3 15 3 L 7 3 z M 7 4 L 15 4 C 15.554 4 16 4.446 16 5 L 16 17 C 16 17.554 15.554 18 15 18 L 13 18 L 13 17 L 9 17 L 9 18 L 7 18 C 6.446 18 6 17.554 6 17 L 6 5 C 6 4.446 6.446 4 7 4 z M 8 5 C 7.446 5 7 5.446 7 6 L 7 14 C 7 14.554 7.446 15 8 15 L 14 15 C 14.554 15 15 14.554 15 14 L 15 6 C 15 5.446 14.554 5 14 5 L 8 5 z M 10 7 L 12 7 L 12 11 L 10 11 L 10 7 z M 11 12 A 1 1 0 0 1 12 13 A 1 1 0 0 1 11 14 A 1 1 0 0 1 10 13 A 1 1 0 0 1 11 12 z"/>
</svg>
