<svg xmlns="http://www.w3.org/2000/svg" xmlns:svg="http://www.w3.org/2000/svg" id="svg4187" width="22" height="22" version="1.1" viewBox="0 0 22 22"><metadata id="metadata4192"/><path id="path4148" d="m 3,16 c 0,1.108 0.892,2 2,2 l 12,0 c 1.108,0 2,-0.892 2,-2 L 19,8 C 19,6.892 18.108,6 17,6 L 5,6 C 3.892,6 3,6.892 3,8 Z M 4,16 4,8 C 4,7.446 4.446,7 5,7 l 12,0 c 0.554,0 1,0.446 1,1 l 0,8 c 0,0.554 -0.446,1 -1,1 L 5,17 C 4.446,17 4,16.554 4,16 Z m 1,-1 c 0,0.554 0.446,1 1,1 l 10,0 c 0.554,0 1,-0.446 1,-1 L 17,9 C 17,8.446 16.554,8 16,8 L 6,8 C 5.446,8 5,8.446 5,9 Z" style="opacity:.3;fill:#fff;fill-opacity:1"/><path style="fill:#df382c;fill-opacity:1" id="path4146" d="m 3,15 c 0,1.108 0.892,2 2,2 l 12,0 c 1.108,0 2,-0.892 2,-2 L 19,7 C 19,5.892 18.108,5 17,5 L 5,5 C 3.892,5 3,5.892 3,7 Z M 4,15 4,7 C 4,6.446 4.446,6 5,6 l 12,0 c 0.554,0 1,0.446 1,1 l 0,8 c 0,0.554 -0.446,1 -1,1 L 5,16 C 4.446,16 4,15.554 4,15 Z m 1,-1 c 0,0.554 0.446,1 1,1 l 10,0 c 0.554,0 1,-0.446 1,-1 L 17,8 C 17,7.446 16.554,7 16,7 L 6,7 C 5.446,7 5,7.446 5,8 Z"/></svg>