<svg xmlns="http://www.w3.org/2000/svg" id="svg4187" width="22" height="22" version="1.1" viewBox="0 0 22 22"><path id="path832" d="M 5,6 C 3.892,6 3,6.892 3,8 v 8 c 0,1.108 0.892,2 2,2 h 12 c 1.108,0 2,-0.892 2,-2 V 8 C 19,6.892 18.108,6 17,6 Z m 0,1 h 12 c 0.554,0 1,0.446 1,1 v 8 c 0,0.554 -0.446,1 -1,1 H 5 C 4.446,17 4,16.554 4,16 V 8 C 4,7.446 4.446,7 5,7 Z M 6,8 C 5.446,8 5,8.446 5,9 v 6 c 0,0.554 0.446,1 1,1 h 10 c 0.554,0 1,-0.446 1,-1 V 9 C 17,8.446 16.554,8 16,8 h -4 v 4 H 10 V 8 Z m 5,5 a 1,1 0 0 1 1,1 1,1 0 0 1 -1,1 1,1 0 0 1 -1,-1 1,1 0 0 1 1,-1 z" style="opacity:.3;fill:#fff"/><path style="fill:#3c3c3c" id="path4146" d="M 5 5 C 3.892 5 3 5.892 3 7 L 3 15 C 3 16.108 3.892 17 5 17 L 17 17 C 18.108 17 19 16.108 19 15 L 19 7 C 19 5.892 18.108 5 17 5 L 5 5 z M 5 6 L 17 6 C 17.554 6 18 6.446 18 7 L 18 15 C 18 15.554 17.554 16 17 16 L 5 16 C 4.446 16 4 15.554 4 15 L 4 7 C 4 6.446 4.446 6 5 6 z M 6 7 C 5.446 7 5 7.446 5 8 L 5 14 C 5 14.554 5.446 15 6 15 L 16 15 C 16.554 15 17 14.554 17 14 L 17 8 C 17 7.446 16.554 7 16 7 L 12 7 L 12 11 L 10 11 L 10 7 L 6 7 z M 11 12 A 1 1 0 0 1 12 13 A 1 1 0 0 1 11 14 A 1 1 0 0 1 10 13 A 1 1 0 0 1 11 12 z"/></svg>