<?xml version="1.0" encoding="UTF-8" standalone="no"?>
<svg
   xmlns:dc="http://purl.org/dc/elements/1.1/"
   xmlns:cc="http://creativecommons.org/ns#"
   xmlns:rdf="http://www.w3.org/1999/02/22-rdf-syntax-ns#"
   xmlns:svg="http://www.w3.org/2000/svg"
   xmlns="http://www.w3.org/2000/svg"
   width="22"
   height="22"
   viewBox="0 0 22 22"
   id="svg4187"
   version="1.1">
  <defs
     id="defs4189" />
  <metadata
     id="metadata4192">
    <rdf:RDF>
      <cc:Work
         rdf:about="">
        <dc:format>image/svg+xml</dc:format>
        <dc:type
           rdf:resource="http://purl.org/dc/dcmitype/StillImage" />
        <dc:title></dc:title>
      </cc:Work>
    </rdf:RDF>
  </metadata>
  <path
     id="path4148"
     d="M 5 6 C 4.446 6 4 6.446 4 7 L 4 8 C 4 7.446 4.446 7 5 7 L 6 7 L 16 7 L 17 7 C 17.554 7 18 7.446 18 8 L 18 7 C 18 6.446 17.554 6 17 6 L 5 6 z M 5 14 L 5 15 C 5 15.554 5.446 16 6 16 L 16 16 C 16.554 16 17 15.554 17 15 L 17 14 C 17 14.554 16.554 15 16 15 L 6 15 C 5.446 15 5 14.554 5 14 z M 3 15 L 3 16 C 3 17.108 3.892 18 5 18 L 17 18 C 18.108 18 19 17.108 19 16 L 19 15 C 19 16.108 18.108 17 17 17 L 5 17 C 3.892 17 3 16.108 3 15 z "
     style="opacity:0.3;fill:#ffffff;fill-opacity:1" />
  <path
     style="fill:#3c3c3c;opacity:0.4"
     d="m 3,15 c 0,1.108 0.892,2 2,2 l 12,0 c 1.108,0 2,-0.892 2,-2 L 19,7 C 19,5.892 18.108,5 17,5 L 5,5 C 3.892,5 3,5.892 3,7 Z M 4,15 4,7 C 4,6.446 4.446,6 5,6 l 12,0 c 0.554,0 1,0.446 1,1 l 0,8 c 0,0.554 -0.446,1 -1,1 L 5,16 C 4.446,16 4,15.554 4,15 Z m 1,-1 c 0,0.554 0.446,1 1,1 l 10,0 c 0.554,0 1,-0.446 1,-1 L 17,8 C 17,7.446 16.554,7 16,7 L 6,7 C 5.446,7 5,7.446 5,8 Z"
     id="path4146" />
</svg>
