<?xml version="1.0" encoding="UTF-8" standalone="no"?>
<svg
   xmlns:dc="http://purl.org/dc/elements/1.1/"
   xmlns:cc="http://creativecommons.org/ns#"
   xmlns:rdf="http://www.w3.org/1999/02/22-rdf-syntax-ns#"
   xmlns:svg="http://www.w3.org/2000/svg"
   xmlns="http://www.w3.org/2000/svg"
   width="22"
   height="22"
   viewBox="0 0 22 22"
   id="svg4187"
   version="1.1">
  <defs
     id="defs4189" />
  <metadata
     id="metadata4192">
    <rdf:RDF>
      <cc:Work
         rdf:about="">
        <dc:format>image/svg+xml</dc:format>
        <dc:type
           rdf:resource="http://purl.org/dc/dcmitype/StillImage" />
        <dc:title></dc:title>
      </cc:Work>
    </rdf:RDF>
  </metadata>
  <path
     id="path4175"
     d="M 5 5 C 4.446 5 4 5.446 4 6 L 4 7 C 4 6.446 4.446 6 5 6 L 6 6 L 16 6 L 17 6 C 17.554 6 18 6.446 18 7 L 18 6 C 18 5.446 17.554 5 17 5 L 5 5 z M 5 13 L 5 14 C 5 14.554 5.446 15 6 15 L 16 15 C 16.554 15 17 14.554 17 14 L 17 13 C 17 13.554 16.554 14 16 14 L 6 14 C 5.446 14 5 13.554 5 13 z M 3 14 L 3 15 C 3 15.36693 3.1042911 15.704999 3.2753906 16 L 5 16 C 3.892 16 3 15.108 3 14 z M 19 14 C 19 15.108 18.108 16 17 16 L 18.724609 16 C 18.895709 15.704999 19 15.36693 19 15 L 19 14 z M 2 17.5 L 2 18.5 C 2 18.777 2.223 19 2.5 19 L 19.5 19 C 19.777 19 20 18.777 20 18.5 L 20 17.5 C 20 17.777 19.777 18 19.5 18 L 2.5 18 C 2.223 18 2 17.777 2 17.5 z "
     style="opacity:0.3;fill:#000000;fill-opacity:1" />
  <path
     id="path4162"
     d="M 5,4 C 3.892,4 3,4.892 3,6 l 0,8 c 0,1.108 0.892,2 2,2 L 2.5,16 C 2.223,16 2,16.223 2,16.5 l 0,1 C 2,17.777 2.223,18 2.5,18 l 17,0 c 0.277,0 0.5,-0.223 0.5,-0.5 l 0,-1 C 20,16.223 19.777,16 19.5,16 L 17,16 c 1.108,0 2,-0.892 2,-2 L 19,6 C 19,4.892 18.108,4 17,4 L 5,4 Z m 0,1 12,0 c 0.554,0 1,0.446 1,1 l 0,8 c 0,0.554 -0.446,1 -1,1 L 5,15 C 4.446,15 4,14.554 4,14 L 4,6 C 4,5.446 4.446,5 5,5 Z M 6,6 C 5.446,6 5,6.446 5,7 l 0,6 c 0,0.554 0.446,1 1,1 l 10,0 c 0.554,0 1,-0.446 1,-1 L 17,7 C 17,6.446 16.554,6 16,6 L 6,6 Z"
     style="fill:#dfdbd2;opacity:0.4" />
</svg>
