<?xml version="1.0" encoding="UTF-8" standalone="no"?>
<svg
   xmlns:dc="http://purl.org/dc/elements/1.1/"
   xmlns:cc="http://creativecommons.org/ns#"
   xmlns:rdf="http://www.w3.org/1999/02/22-rdf-syntax-ns#"
   xmlns:svg="http://www.w3.org/2000/svg"
   xmlns="http://www.w3.org/2000/svg"
   version="1.1"
   id="svg4187"
   viewBox="0 0 22 22"
   height="22"
   width="22">
  <defs
     id="defs4189" />
  <metadata
     id="metadata4192">
    <rdf:RDF>
      <cc:Work
         rdf:about="">
        <dc:format>image/svg+xml</dc:format>
        <dc:type
           rdf:resource="http://purl.org/dc/dcmitype/StillImage" />
        <dc:title></dc:title>
      </cc:Work>
    </rdf:RDF>
  </metadata>
  <path
     id="path4144"
     d="M 7 4 C 6.446 4 6 4.446 6 5 L 6 6 C 6 5.446 6.446 5 7 5 L 8 5 L 14 5 L 15 5 C 15.554 5 16 5.446 16 6 L 16 5 C 16 4.446 15.554 4 15 4 L 7 4 z M 7 14 L 7 15 C 7 15.554 7.446 16 8 16 L 14 16 C 14.554 16 15 15.554 15 15 L 15 14 C 15 14.554 14.554 15 14 15 L 8 15 C 7.446 15 7 14.554 7 14 z M 5 17 L 5 18 C 5 19.108 5.892 20 7 20 L 15 20 C 16.108 20 17 19.108 17 18 L 17 17 C 17 18.108 16.108 19 15 19 L 13 19 L 9 19 L 7 19 C 5.892 19 5 18.108 5 17 z "
     style="opacity:0.3;fill:#000000;fill-opacity:1" />
  <path
     style="fill:#df382c;fill-opacity:1"
     d="M 7,3 C 5.892,3 5,3.892 5,5 l 0,12 c 0,1.108 0.892,2 2,2 l 8,0 c 1.108,0 2,-0.892 2,-2 L 17,5 C 17,3.892 16.108,3 15,3 L 7,3 Z m 0,1 8,0 c 0.554,0 1,0.446 1,1 l 0,12 c 0,0.554 -0.446,1 -1,1 l -2,0 0,-1 -4,0 0,1 -2,0 C 6.446,18 6,17.554 6,17 L 6,5 C 6,4.446 6.446,4 7,4 Z M 8,5 C 7.446,5 7,5.446 7,6 l 0,8 c 0,0.554 0.446,1 1,1 l 6,0 c 0.554,0 1,-0.446 1,-1 L 15,6 C 15,5.446 14.554,5 14,5 L 8,5 Z"
     id="rect2401" />
</svg>
