<svg xmlns="http://www.w3.org/2000/svg" width="24" height="24" version="1.1"><path d="M 5.7773438,5 C 5.3470743,5 5,5.4321508 5,5.96875 l 0,9.0625 C 5,15.567849 5.3470743,16 5.7773438,16 L 18.222656,16 C 18.652926,16 19,15.567849 19,15.03125 l 0,-9.0625 C 19,5.4321508 18.652926,5 18.222656,5 L 5.7773438,5 Z M 11,6 l 2,0 0,1 4,0 0,7 -10,0 0,-7 4,0 0,-1 z M 5.1425781,17 C 4.5094352,17 4,17.446 4,18 c 0,0.554 0.5094352,1 1.1425781,1 L 18.857422,19 C 19.490565,19 20,18.554 20,18 20,17.446 19.490565,17 18.857422,17 L 5.1425781,17 Z" style="opacity:.35;fill:#ccc;fill-opacity:1;stroke:none"/></svg>