<?xml version="1.0" encoding="UTF-8" standalone="no"?>
<svg xmlns="http://www.w3.org/2000/svg" version="1.1" width="24" height="24">
 <title>
  Gnome Symbolic Icon Theme
 </title>
 <path style="opacity:1;fill:#cccccc;fill-opacity:1;stroke:none" d="M 5.7773438,5 C 5.3470743,5 5,5.4321508 5,5.96875 l 0,9.0625 C 5,15.567849 5.3470743,16 5.7773438,16 L 11,16 l 0,-2 -4,0 0,-7 4,0 0,-1 2,0 0,1 4,0 0,4.005859 2,0 0,-5.037109 C 19,5.4321508 18.652926,5 18.222656,5 L 5.7773438,5 Z M 5.1425781,17 C 4.5094353,17 4,17.446 4,18 c 0,0.554 0.5094353,1 1.1425781,1 L 11,19 11,17 5.1425781,17 Z"/>
 <path class="warning" d="M 12.875,12 C 12.38255,12 12,12.38256 12,12.875 l 0,6.25 C 12,19.61744 12.38255,20 12.875,20 l 6.25,0 C 19.61745,20 20,19.61744 20,19.125 l 0,-6.25 c 0,-0.49 -0.38,-0.87 -0.88,-0.87 l -6.25,0 z m 2.125,1 2,0 0,4 -2,0 0,-4 z m 0,5 2,0 0,1 -2,0 0,-1 z" style="color:#bebebe;fill:#f57900"/>
</svg>
