<svg xmlns="http://www.w3.org/2000/svg" id="svg8" width="24" height="24" version="1.1"><path style="fill:#ccc;fill-opacity:.35" id="path4" d="M 8.8222656,5 C 7.8039961,5 7,5.64771 7,6.46875 l 0,11.0625 C 7,18.35224 7.803934,19 8.8222656,19 L 11,19 l 0,-1 0,-2 0,-1 -2,0 0,-8 6,0 0,4.005859 2,0 0,-4.537109 C 17,5.64776 16.196066,5 15.177734,5 L 8.8222656,5 Z"/><path class="warning" style="fill:#f57900" id="path827" d="M 12.875,12 C 12.38255,12 12,12.38256 12,12.875 v 6.25 C 12,19.61744 12.38255,20 12.875,20 h 6.25 C 19.61745,20 20,19.61744 20,19.125 v -6.25 c 0,-0.49 -0.380859,-0.86914 -0.880859,-0.86914 h -6.25 z M 13,13 h 1.414062 L 16,14.585938 17.585938,13 H 19 v 1.414062 L 17.414062,16 19,17.585938 V 19 H 17.585938 L 16,17.414062 14.414062,19 H 13 V 17.585938 L 14.585938,16 13,14.414062 Z"/></svg>