<?xml version="1.0" encoding="UTF-8" standalone="no"?>
<svg xmlns="http://www.w3.org/2000/svg" height="24" width="24" version="1.1">
 <title>
  Gnome Symbolic Icon Theme
 </title>
 <path style="fill:#cccccc;fill-opacity:1" d="M 8.8222656,5 C 7.8039961,5 7,5.64771 7,6.46875 l 0,11.0625 C 7,18.35224 7.803934,19 8.8222656,19 L 11,19 l 0,-1 0,-2 0,-1 -2,0 0,-8 6,0 0,4.005859 2,0 0,-4.537109 C 17,5.64776 16.196066,5 15.177734,5 L 8.8222656,5 Z"/>
 <path class="warning" d="M 12.875,12 C 12.38255,12 12,12.38256 12,12.875 l 0,6.25 C 12,19.61744 12.38255,20 12.875,20 l 6.25,0 C 19.61745,20 20,19.61744 20,19.125 l 0,-6.25 c 0,-0.49 -0.38,-0.87 -0.88,-0.87 l -6.25,0 z m 2.125,1 2,0 0,4 -2,0 0,-4 z m 0,5 2,0 0,1 -2,0 0,-1 z" style="color:#bebebe;fill:#f57900"/>
</svg>
