<svg xmlns="http://www.w3.org/2000/svg" id="svg8" width="24" height="24" version="1.1">
 <path style="opacity:0.35;fill:#cccccc;fill-opacity:1;stroke:none" id="path4" d="M 5.7773438,6 C 5.3470743,6 5,6.4321508 5,6.96875 l 0,10.0625 C 5,17.567849 5.3470743,18 5.7773438,18 L 11,18 l 0,-2 -4,0 0,-8 4,0 0,-1 2,0 0,1 4,0 0,3.005859 2,0 0,-4.037109 C 19,6.4321508 18.652926,6 18.222656,6 L 5.7773438,6 Z"/>
 <path class="warning" style="fill:#f57900" id="path827" d="M 12.875,12 C 12.38255,12 12,12.38256 12,12.875 v 6.25 C 12,19.61744 12.38255,20 12.875,20 h 6.25 C 19.61745,20 20,19.61744 20,19.125 v -6.25 c 0,-0.49 -0.38086,-0.86914 -0.88086,-0.86914 H 12.869141 Z M 13,13 h 1.414061 L 16,14.585938 17.585937,13 H 19 v 1.414062 L 17.414062,16 19,17.585938 V 19 H 17.585937 L 16,17.414062 14.414062,19 H 13 V 17.585938 L 14.585938,16 13,14.414062 Z"/>
</svg>
