<?xml version="1.0" encoding="UTF-8" standalone="no"?>
<svg xmlns="http://www.w3.org/2000/svg" version="1.1" width="24" height="24">
 <path style="opacity:1;fill:#cccccc;fill-opacity:1;stroke:none" d="M 5.7773438,6 C 5.3470743,6 5,6.4321508 5,6.96875 l 0,10.0625 C 5,17.567849 5.3470743,18 5.7773438,18 L 11,18 l 0,-2 -4,0 0,-8 4,0 0,-1 2,0 0,1 4,0 0,3.005859 2,0 0,-4.037109 C 19,6.4321508 18.652926,6 18.222656,6 L 5.7773438,6 Z"/>
 <path class="warning" d="M 12.875,12 C 12.38255,12 12,12.38256 12,12.875 l 0,6.25 C 12,19.61744 12.38255,20 12.875,20 l 6.25,0 C 19.61745,20 20,19.61744 20,19.125 l 0,-6.25 c 0,-0.49 -0.38,-0.87 -0.88,-0.87 l -6.25,0 z m 2.125,1 2,0 0,4 -2,0 0,-4 z m 0,5 2,0 0,1 -2,0 0,-1 z" style="fill:#f57900"/>
</svg>
