<svg xmlns="http://www.w3.org/2000/svg" id="svg8" width="16" height="16" version="1.1">
 <path style="opacity:0.35;fill:#cccccc;fill-opacity:1;stroke:none" id="path4" d="M 1.7773438 1 C 1.3470743 1 1 1.4321508 1 1.96875 L 1 11.03125 C 1 11.567849 1.3470743 12 1.7773438 12 L 7 12 L 7 10 L 3 10 L 3 3 L 7 3 L 7 2 L 9 2 L 9 3 L 13 3 L 13 7.0058594 L 15 7.0058594 L 15 1.96875 C 15 1.4321508 14.652926 1 14.222656 1 L 1.7773438 1 z M 1.1425781 13 C 0.50943527 13 1.4802974e-16 13.446 0 14 C 0 14.554 0.50943526 15 1.1425781 15 L 7 15 L 7 13 L 1.1425781 13 z"/>
 <path class="warning" style="fill:#f57900" id="path827" d="M 8.875 8 C 8.38255 8 8 8.38256 8 8.875 L 8 15.125 C 8 15.61744 8.38255 16 8.875 16 L 15.125 16 C 15.61745 16 16 15.61744 16 15.125 L 16 8.875 C 16 8.385 15.619141 8.0058594 15.119141 8.0058594 L 8.8691406 8.0058594 L 8.875 8 z M 9 9 L 10.414062 9 L 12 10.585938 L 13.585938 9 L 15 9 L 15 10.414062 L 13.414062 12 L 15 13.585938 L 15 15 L 13.585938 15 L 12 13.414062 L 10.414062 15 L 9 15 L 9 13.585938 L 10.585938 12 L 9 10.414062 L 9 9 z"/>
</svg>
