<svg xmlns="http://www.w3.org/2000/svg" id="svg8" width="16" height="16" version="1.1">
 <path style="fill:#cccccc;fill-opacity:0.35" id="path4" d="M 4.8222656 1 C 3.8039961 1 3 1.64771 3 2.46875 L 3 13.53125 C 3 14.35224 3.803934 15 4.8222656 15 L 7 15 L 7 14 L 7 12 L 7 11 L 5 11 L 5 3 L 11 3 L 11 7.0058594 L 13 7.0058594 L 13 2.46875 C 13 1.64776 12.196066 1 11.177734 1 L 4.8222656 1 z"/>
 <path class="warning" style="fill:#f57900" id="path827" d="m 8.875,7.9999996 c -0.49245,0 -0.875,0.38256 -0.875,0.875 V 15.125 C 8,15.61744 8.38255,16 8.875,16 h 6.25 C 15.61745,16 16,15.61744 16,15.125 V 8.8749996 c 0,-0.49 -0.380859,-0.8691406 -0.880859,-0.8691406 H 8.86914 Z m 0.125,1 h 1.414062 L 12,10.585938 13.585938,8.9999996 H 15 V 10.414062 L 13.414062,12 15,13.585938 V 15 H 13.585938 L 12,13.414062 10.414062,15 H 9 V 13.585938 L 10.585938,12 9,10.414062 Z"/>
</svg>
