<svg xmlns="http://www.w3.org/2000/svg" id="svg8" width="16" height="16" version="1.1">
 <path style="opacity:0.35;fill:#cccccc;fill-opacity:1;stroke:none" id="path4" d="M 1.7773438 2 C 1.3470743 2 1 2.4321508 1 2.96875 L 1 13.03125 C 1 13.567849 1.3470743 14 1.7773438 14 L 7 14 L 7 12 L 3 12 L 3 4 L 7 4 L 7 3 L 9 3 L 9 4 L 13 4 L 13 7.0058594 L 15 7.0058594 L 15 2.96875 C 15 2.4321508 14.652926 2 14.222656 2 L 1.7773438 2 z"/>
 <path class="warning" style="fill:#f57900" id="path827" d="M 8.875,7.9999996 C 8.38255,7.9999996 8,8.3825596 8,8.875 v 6.25 C 8,15.61744 8.38255,16 8.875,16 h 6.25 C 15.61745,16 16,15.61744 16,15.125 V 8.875 C 16,8.3849996 15.619141,8.005859 15.119141,8.005859 H 8.8691406 Z M 9,9 h 1.414062 L 12,10.585938 13.585938,9 H 15 v 1.414062 L 13.414062,12 15,13.585938 V 15 H 13.585938 L 12,13.414062 10.414062,15 H 9 V 13.585938 L 10.585938,12 9,10.414062 Z"/>
</svg>
